Plot:

 
Strange lights descend on the city of Los Angeles, drawing people outside like moths to a flame where an extraterrestrial force threatens to swallow the entire human population off the face of the Earth.

 
iNfo:

Video
ID : 0
Format : MPEG-4 Visual
Format profile : Advanced Simple@L5
Format settings, BVOP : Yes
Format settings, QPel : No
Format settings, GMC : No warppoints
Format settings, Matrix : Default (H.263)
Muxing mode : Packed bitstream
Codec ID : XVID
Codec ID/Hint : XviD
Duration : 1h 24mn
Bit rate : 1 110 Kbps
Width : 624 pixels
Height : 256 pixels
Display aspect ratio : 2.40:1
Frame rate : 25.000 fps
Color space : YUV
Chroma subsampling : 4:2:0
Bit depth : 8 bits
Scan type : Progressive
Bits/(Pixel*Frame) : 0.278
Stream size : 672 MiB (90%)
Writing library : XviD 1.2.1 (UTC 2008-12-04)

Audio
ID : 1
Format : MPEG Audio
Format version : Version 1
Format profile : Layer 3
Mode : Joint stereo
Mode extension : MS Stereo
Codec ID : 55
Codec ID/Hint : MP3
Duration : 1h 24mn
Bit rate mode : Variable
Bit rate : 114 Kbps
Nominal bit rate : 128 Kbps
Channel(s) : 2 channels
Sampling rate : 48.0 KHz
Stream size : 68.8 MiB (9%)
Alignment : Aligned on interleaves
Interleave, duration : 24 ms (0.60 video frame)
Interleave, preload duration : 526 ms
Writing library : LAME3.92






================================== 
http://thepiratebay.org/user/hiest
==================================







Screens:
 
http://img33.imageshack.us/img33/7652/vlcsnap2010111803h23m46.png
 
http://img43.imageshack.us/img43/8203/vlcsnap2010111803h26m01.png
 
http://img6.imageshack.us/img6/8020/vlcsnap2010111803h26m16.png
 
http://img34.imageshack.us/img34/567/vlcsnap2010111803h26m36.png
 
http://img824.imageshack.us/img824/9710/vlcsnap2010111803h27m35.png